<?xml version="1.0" encoding="utf-8"?>
<!-- Generator: Adobe Illustrator 19.1.0, SVG Export Plug-In . SVG Version: 6.00 Build 0)  -->
<svg version="1.1" id="Layer_1" xmlns="http://www.w3.org/2000/svg" xmlns:xlink="http://www.w3.org/1999/xlink" x="0px" y="0px"
	 viewBox="21 77 48 48" style="enable-background:new 21 77 48 48;" xml:space="preserve">
<style type="text/css">
	.st0{fill:none;}
	.st1{fill:#007CB7;}
</style>
<path class="st0" d="M21,77h48v48H21V77z"/>
<g>
	<path class="st1" d="M53,103c1.1,0,2-0.9,2-2V83c0-1.1-0.9-2-2-2H27c-1.1,0-2,0.9-2,2v28l8-8H53z M31,90.8h7.8V83h2.5v7.7H49v2.5
		h-7.8v7.7h-2.5v-7.7H31V90.8z"/>
	<path class="st1" d="M63,89h-4v18H33v4c0,1.1,0.9,2,2,2h22l8,8V91C65,89.9,64.1,89,63,89z"/>
</g>
</svg>
