<?xml version="1.0" encoding="utf-8"?>
<!-- Generator: Adobe Illustrator 19.1.0, SVG Export Plug-In . SVG Version: 6.00 Build 0)  -->
<svg version="1.1" id="Layer_1" xmlns="http://www.w3.org/2000/svg" xmlns:xlink="http://www.w3.org/1999/xlink" x="0px" y="0px"
	 viewBox="5 93 16 16" style="enable-background:new 5 93 16 16;" xml:space="preserve">
<style type="text/css">
	.st0{fill:#007CB7;}
</style>
<path class="st0" d="M19.6,102.1c0.1-0.3,0.1-0.8,0.1-1.1s0-0.8-0.1-1.1l-1.8-0.3c-0.1-0.3-0.3-0.7-0.4-1l1-1.5
	c-0.4-0.6-0.9-1.1-1.6-1.5l-1.5,1c-0.3-0.2-0.7-0.3-1-0.4l-0.2-1.8c-0.3-0.1-0.8-0.1-1.1-0.1s-0.8,0-1.1,0.1l-0.3,1.8
	c-0.3,0.2-0.7,0.3-1,0.4l-1.4-1C8.5,96,8,96.5,7.6,97.2l1,1.5c-0.2,0.3-0.3,0.6-0.4,0.9l-1.8,0.3c-0.1,0.3-0.1,0.8-0.1,1.1
	s0,0.8,0.1,1.1l1.7,0.3c0.1,0.3,0.3,0.7,0.4,1l-1,1.5c0.4,0.6,0.9,1.1,1.6,1.5l1.5-1c0.3,0.2,0.7,0.3,1,0.4l0.3,1.8
	c0.3,0.1,0.7,0.1,1,0.1s0.8,0,1.1-0.1l0.3-1.8c0.3-0.1,0.7-0.3,1-0.4l1.5,1c0.6-0.4,1.1-0.9,1.6-1.6l-1-1.5c0.2-0.3,0.3-0.7,0.4-1
	C17.9,102.3,19.6,102.1,19.6,102.1z M13,102.7c-0.9,0-1.7-0.8-1.7-1.7s0.8-1.7,1.7-1.7s1.7,0.8,1.7,1.7S13.9,102.7,13,102.7z"/>
</svg>
