<?xml version="1.0" encoding="utf-8"?>
<!-- Generator: Adobe Illustrator 19.1.0, SVG Export Plug-In . SVG Version: 6.00 Build 0)  -->
<svg version="1.1" id="Layer_1" xmlns="http://www.w3.org/2000/svg" xmlns:xlink="http://www.w3.org/1999/xlink" x="0px" y="0px"
	 viewBox="21 77 48 48" style="enable-background:new 21 77 48 48;" xml:space="preserve">
<style type="text/css">
	.st0{fill:#007CB7;}
</style>
<g>
	<path class="st0" d="M34.9,114.5l-2-1.9c-1.3-1.2-1.4-3.2-0.2-4.5l5.9-6.4l-1.8-1.6l-5.9,6.4c-2.1,2.2-1.9,5.7,0.3,7.8l2.1,2
		c2.2,2.1,5.7,1.9,7.8-0.3l5.9-6.4l-1.8-1.6l-5.9,6.4C38.2,115.6,36.2,115.6,34.9,114.5z"/>
	<path class="st0" d="M48.9,87l-5.8,6.3l1.8,1.6l5.8-6.2c1.2-1.3,3.2-1.4,4.5-0.2l2,1.9c1.3,1.2,1.4,3.2,0.2,4.5l-5.8,6.2l1.8,1.6
		l5.8-6.3c2.1-2.2,1.9-5.7-0.3-7.8l-2.1-2C54.4,84.6,50.9,84.7,48.9,87z"/>
	
		<rect x="36.4" y="100.2" transform="matrix(-0.6778 0.7352 -0.7352 -0.6778 150.0493 137.1619)" class="st0" width="17.1" height="2.5"/>
</g>
</svg>
