<?xml version="1.0" encoding="utf-8"?>
<!-- Generator: Adobe Illustrator 19.1.0, SVG Export Plug-In . SVG Version: 6.00 Build 0)  -->
<svg version="1.1" id="Layer_1" xmlns="http://www.w3.org/2000/svg" xmlns:xlink="http://www.w3.org/1999/xlink" x="0px" y="0px"
	 viewBox="9 89 24 24" style="enable-background:new 9 89 24 24;" xml:space="preserve">
<style type="text/css">
	.st0{fill:none;}
	.st1{fill:#007CB7;}
</style>
<path class="st0" d="M9,89h24v24H9V89z"/>
<path class="st1" d="M21,94.6c-4.7,0-8.6,2.7-10.3,6.4c1.6,3.8,5.6,6.4,10.3,6.4s8.6-2.7,10.3-6.4C29.6,97.2,25.7,94.6,21,94.6z
	 M21,105.3c-2.6,0-4.7-1.9-4.7-4.3s2.1-4.3,4.7-4.3s4.7,1.9,4.7,4.3S23.6,105.3,21,105.3z M21,98.4c-1.5,0-2.8,1.1-2.8,2.6
	s1.2,2.6,2.8,2.6s2.8-1.1,2.8-2.6S22.5,98.4,21,98.4z"/>
</svg>
