<?xml version="1.0" encoding="utf-8"?>
<!-- Generator: Adobe Illustrator 19.1.0, SVG Export Plug-In . SVG Version: 6.00 Build 0)  -->
<svg version="1.1" id="Layer_2" xmlns="http://www.w3.org/2000/svg" xmlns:xlink="http://www.w3.org/1999/xlink" x="0px" y="0px"
	 viewBox="21 77 48 48" style="enable-background:new 21 77 48 48;" xml:space="preserve">
<style type="text/css">
	.st0{fill:#007CB7;}
</style>
<path class="st0" d="M56.4,107.7c-0.6,0.6-1.5,0.9-2.3,0.9c-0.3,0.8-0.9,1.4-1.7,1.8l-1.6,0.7c-0.9,0.4-1.8,0.3-2.6-0.1
	c-0.6,0.6-1.4,1.1-2.3,1.1h-1.8c-0.9,0-1.7-0.4-2.3-1c-0.8,0.3-1.6,0.4-2.5,0.1l-1.6-0.7c-0.9-0.4-1.5-1-1.7-1.9
	c-0.7,0-1.4-0.2-2-0.6c-1.8,4.7-3.8,9.9-3.8,9.9l9.3-4.8l4.1,9.9c0,0,0.5-1.4,1.3-3.4c0.5,1.9,0.9,3.2,0.9,3.2l4.8-9.4l9.2,5.6
	c0,0-1.7-6.4-3.1-11.7L56.4,107.7z"/>
<path class="st0" d="M58.5,93h-3.6l3.3-1.4c0.8-0.3,1.1-1.2,0.8-2l-0.4-0.9c-0.3-0.8-1.2-1.1-2-0.8l-3.1,1.3l2.4-2.4
	c0.6-0.6,0.6-1.5,0-2.1L55.3,84c-0.6-0.6-1.5-0.6-2.1,0l-2.5,2.5l1.3-3.3c0.3-0.8-0.1-1.6-0.8-2l-0.9-0.4c-0.8-0.3-1.6,0.1-2,0.8
	L47,84.8v-3.3c0-0.8-0.7-1.5-1.5-1.5h-1c-0.8,0-1.5,0.7-1.5,1.5v3.6l-1.4-3.3c-0.3-0.8-1.2-1.1-2-0.8l-0.9,0.4
	c-0.8,0.3-1.1,1.2-0.8,2l1.3,3.1L36.9,84c-0.6-0.6-1.5-0.6-2.1,0L34,84.8c-0.6,0.6-0.6,1.5,0,2.1l2.5,2.5L33.3,88
	c-0.8-0.3-1.6,0.1-2,0.8l-0.4,0.9c-0.3,0.8,0.1,1.6,0.8,2l3.1,1.3h-3.3c-0.8,0-1.5,0.7-1.5,1.5v1c0,0.8,0.7,1.5,1.5,1.5h3.6
	l-3.3,1.4c-0.8,0.3-1.1,1.2-0.8,2l0.4,0.9c0.3,0.8,1.2,1.1,2,0.8l3.1-1.3l-2.4,2.4c-0.6,0.6-0.6,1.5,0,2.1l0.7,0.7
	c0.6,0.6,1.5,0.6,2.1,0l2.5-2.5l-1.3,3.3c-0.3,0.8,0.1,1.6,0.8,2l0.9,0.4c0.8,0.3,1.6-0.1,2-0.8l1.3-3.1v3.3c0,0.8,0.7,1.5,1.5,1.5
	h1c0.8,0,1.5-0.7,1.5-1.5v-3.6l1.4,3.3c0.3,0.8,1.2,1.1,2,0.8l0.9-0.4c0.8-0.3,1.1-1.2,0.8-2l-1.3-3.1l2.4,2.4
	c0.6,0.6,1.5,0.6,2.1,0l0.7-0.7c0.6-0.6,0.6-1.5,0-2.1l-2.5-2.5l3.3,1.3c0.8,0.3,1.6-0.1,2-0.8l0.4-0.9c0.3-0.8-0.1-1.6-0.8-2
	L55.2,97h3.3c0.8,0,1.5-0.7,1.5-1.5v-1C60,93.7,59.3,93,58.5,93z M45,104.9c-5.5,0-9.9-4.5-9.9-9.9s4.5-9.9,9.9-9.9s9.9,4.5,9.9,9.9
	S50.5,104.9,45,104.9z"/>
<circle class="st0" cx="45" cy="95" r="8.1"/>
</svg>
