<?xml version="1.0" encoding="utf-8"?>
<!-- Generator: Adobe Illustrator 19.1.0, SVG Export Plug-In . SVG Version: 6.00 Build 0)  -->
<svg version="1.1" id="Layer_1" xmlns="http://www.w3.org/2000/svg" xmlns:xlink="http://www.w3.org/1999/xlink" x="0px" y="0px"
	 viewBox="9 89 24 24" style="enable-background:new 9 89 24 24;" xml:space="preserve">
<style type="text/css">
	.st0{fill:none;}
	.st1{fill:#007CB7;}
</style>
<path class="st0" d="M9,89h24v24H9V89z M9,89h24v24H9V89z M9,89h24v24H9V89z M9,89h24v24H9V89z"/>
<path class="st1" d="M21,96.8c2.6,0,4.7,1.9,4.7,4.2c0,0.6-0.1,1.1-0.3,1.6l2.7,2.5c1.4-1.1,2.5-2.5,3.2-4
	c-1.6-3.7-5.6-6.4-10.3-6.4c-1.3,0-2.6,0.2-3.7,0.6l2,1.8C19.8,96.9,20.4,96.8,21,96.8z M11.7,94.5l2.1,1.9l0.4,0.4
	c-1.5,1.1-2.8,2.6-3.5,4.2c1.6,3.7,5.6,6.4,10.3,6.4c1.4,0,2.8-0.3,4.1-0.7l0.4,0.4l2.7,2.5l1.2-1.1l-16.5-15
	C12.9,93.4,11.7,94.5,11.7,94.5z M16.8,99.2l1.4,1.3c0,0.2-0.1,0.4-0.1,0.6c0,1.4,1.2,2.5,2.8,2.5c0.2,0,0.4,0,0.6-0.1l1.4,1.3
	c-0.6,0.3-1.3,0.4-2.1,0.4c-2.6,0-4.7-1.9-4.7-4.2C16.3,100.4,16.5,99.8,16.8,99.2z M20.9,98.5l2.9,2.7l0-0.1c0-1.4-1.2-2.5-2.8-2.5
	L20.9,98.5z"/>
</svg>
