<?xml version="1.0" encoding="utf-8"?>
<!-- Generator: Adobe Illustrator 19.1.0, SVG Export Plug-In . SVG Version: 6.00 Build 0)  -->
<svg version="1.1" id="Layer_1" xmlns="http://www.w3.org/2000/svg" xmlns:xlink="http://www.w3.org/1999/xlink" x="0px" y="0px"
	 viewBox="21 77 48 48" style="enable-background:new 21 77 48 48;" xml:space="preserve">
<style type="text/css">
	.st0{fill:#007CB7;}
</style>
<path class="st0" d="M60.7,96.4l-1.3-8.2c-0.2-1.2-1.1-2.1-2.3-2.3L49,84.7c-0.9-0.1-1.7,0.1-2.4,0.8L30,102c-1.1,1.1-1.1,2.8,0,3.9
	l9.5,9.5c1.1,1.1,2.8,1.1,3.9,0L60,98.8C60.6,98.1,60.9,97.3,60.7,96.4z M42.6,113.3c-0.4,0.4-1.1,0.4-1.5,0l-9-9
	c-0.4-0.4-0.4-1.1,0-1.5c0.4-0.4,1.1-0.4,1.5,0l9,9C43.1,112.2,43.1,112.8,42.6,113.3z M54.7,93.6c-0.8,0.8-2.1,0.8-2.9,0
	c-0.8-0.8-0.8-2.1,0-2.9c0.8-0.8,2.1-0.8,2.9,0C55.5,91.5,55.5,92.8,54.7,93.6z"/>
</svg>
