<?xml version="1.0" encoding="utf-8"?>
<!-- Generator: Adobe Illustrator 19.1.0, SVG Export Plug-In . SVG Version: 6.00 Build 0)  -->
<svg version="1.1" id="Layer_1" xmlns="http://www.w3.org/2000/svg" xmlns:xlink="http://www.w3.org/1999/xlink" x="0px" y="0px"
	 viewBox="21 77 48 48" style="enable-background:new 21 77 48 48;" xml:space="preserve">
<style type="text/css">
	.st0{fill:none;}
	.st1{fill:#007CB7;}
</style>
<path class="st0" d="M21,77h48v48H21V77z"/>
<path class="st1" d="M51.9,99c2.9,0,5.2-2.7,5.2-6s-2.3-6-5.2-6c-2.9,0-5.2,2.7-5.2,6S49.1,99,51.9,99z M38.1,99
	c2.9,0,5.2-2.7,5.2-6s-2.3-6-5.2-6c-2.9,0-5.2,2.7-5.2,6S35.2,99,38.1,99z M38.1,103c-4,0-12.1,2.3-12.1,7v5h24.3v-5
	C50.2,105.3,42.1,103,38.1,103z M51.9,103c-0.5,0-1.1,0-1.7,0.1c2,1.7,3.4,3.9,3.4,6.9v5h10.4v-5C64.1,105.3,56,103,51.9,103z"/>
<circle class="st1" cx="38" cy="93" r="6"/>
<circle class="st1" cx="52" cy="93" r="6"/>
</svg>
